<svg id="SvgjsSvg1044" width="570" height="353" xmlns="http://www.w3.org/2000/svg" version="1.1" xmlns:xlink="http://www.w3.org/1999/xlink" xmlns:svgjs="http://svgjs.com/svgjs"><defs id="SvgjsDefs1045"></defs><g id="SvgjsG1046" transform="translate(232,25)"><path id="SvgjsPath1047" d="M 0 0L 100 0L 100 70L 0 70Z" stroke="rgba(50,50,50,1)" stroke-width="2" fill-opacity="1" fill="#ffffff"></path><g id="SvgjsG1048"><text id="SvgjsText1049" font-family="微软雅黑" text-anchor="middle" font-size="13px" width="80px" fill="#323232" font-weight="400" align="middle" lineHeight="125%" anchor="middle" family="微软雅黑" size="13px" weight="400" font-style="" opacity="1" y="24.375" transform="rotate(0)"><tspan id="SvgjsTspan1050" dy="16" x="50"><tspan id="SvgjsTspan1051" style="text-decoration:;">出版社</tspan></tspan></text></g></g><g id="SvgjsG1052"><path id="SvgjsPath1053" d="M231 60L178 60L178 60L124 60" stroke="#323232" stroke-width="2" fill="none"></path></g><g id="SvgjsG1054"><path id="SvgjsPath1055" d="M333 60L388.5 60L388.5 60L444 60" stroke="#323232" stroke-width="2" fill="none"></path></g><g id="SvgjsG1056"><path id="SvgjsPath1057" d="M282 96L282 143L282 143L282 190" stroke="#323232" stroke-width="2" fill="none"></path></g><g id="SvgjsG1058" transform="translate(25,25)"><path id="SvgjsPath1059" d="M 0 35C 0 -11.666666666666666 100 -11.666666666666666 100 35C 100 81.66666666666667 0 81.66666666666667 0 35Z" stroke="rgba(50,50,50,1)" stroke-width="2" fill-opacity="1" fill="#ffffff"></path><g id="SvgjsG1060"><text id="SvgjsText1061" font-family="微软雅黑" text-anchor="middle" font-size="13px" width="80px" fill="#323232" font-weight="400" align="middle" lineHeight="125%" anchor="middle" family="微软雅黑" size="13px" weight="400" font-style="" opacity="1" y="24.375" transform="rotate(0)"><tspan id="SvgjsTspan1062" dy="16" x="50"><tspan id="SvgjsTspan1063" style="text-decoration:;">出版社编号</tspan></tspan></text></g></g><g id="SvgjsG1064" transform="translate(445,25)"><path id="SvgjsPath1065" d="M 0 35C 0 -11.666666666666666 100 -11.666666666666666 100 35C 100 81.66666666666667 0 81.66666666666667 0 35Z" stroke="rgba(50,50,50,1)" stroke-width="2" fill-opacity="1" fill="#ffffff"></path><g id="SvgjsG1066"><text id="SvgjsText1067" font-family="微软雅黑" text-anchor="middle" font-size="13px" width="80px" fill="#323232" font-weight="400" align="middle" lineHeight="125%" anchor="middle" family="微软雅黑" size="13px" weight="400" font-style="" opacity="1" y="24.375" transform="rotate(0)"><tspan id="SvgjsTspan1068" dy="16" x="50"><tspan id="SvgjsTspan1069" style="text-decoration:;">地址</tspan></tspan></text></g></g><g id="SvgjsG1070" transform="translate(232,191)"><path id="SvgjsPath1071" d="M 0 35C 0 -11.666666666666666 100 -11.666666666666666 100 35C 100 81.66666666666667 0 81.66666666666667 0 35Z" stroke="rgba(50,50,50,1)" stroke-width="2" fill-opacity="1" fill="#ffffff"></path><g id="SvgjsG1072"><text id="SvgjsText1073" font-family="微软雅黑" text-anchor="middle" font-size="13px" width="80px" fill="#323232" font-weight="400" align="middle" lineHeight="125%" anchor="middle" family="微软雅黑" size="13px" weight="400" font-style="" opacity="1" y="24.375" transform="rotate(0)"><tspan id="SvgjsTspan1074" dy="16" x="50"><tspan id="SvgjsTspan1075" style="text-decoration:;">出版社名称</tspan></tspan></text></g></g><g id="SvgjsG1076" transform="translate(126,274)"><path id="SvgjsPath1077" d="M 0 0L 294 0L 294 54L 0 54Z" stroke="none" fill="none"></path><g id="SvgjsG1078"><text id="SvgjsText1079" font-family="微软雅黑" text-anchor="middle" font-size="13px" width="294px" fill="#323232" font-weight="400" align="middle" lineHeight="125%" anchor="middle" family="微软雅黑" size="13px" weight="400" font-style="" opacity="1" y="16.375" transform="rotate(0)"><tspan id="SvgjsTspan1080" dy="16" x="147"><tspan id="SvgjsTspan1081" style="text-decoration:;">出版社实体型</tspan></tspan></text></g></g></svg>