<svg id="SvgjsSvg1044" width="504" height="330.6000061035156" xmlns="http://www.w3.org/2000/svg" version="1.1" xmlns:xlink="http://www.w3.org/1999/xlink" xmlns:svgjs="http://svgjs.com/svgjs"><defs id="SvgjsDefs1045"></defs><g id="SvgjsG1046" transform="translate(202.40000915527344,25.00000762939453)"><path id="SvgjsPath1047" d="M 0 0L 100 0L 100 70L 0 70Z" stroke="rgba(50,50,50,1)" stroke-width="2" fill-opacity="1" fill="#ffffff"></path><g id="SvgjsG1048"><text id="SvgjsText1049" font-family="微软雅黑" text-anchor="middle" font-size="13px" width="80px" fill="#323232" font-weight="400" align="middle" lineHeight="125%" anchor="middle" family="微软雅黑" size="13px" weight="400" font-style="" opacity="1" y="24.375" transform="rotate(0)"><tspan id="SvgjsTspan1050" dy="16" x="50"><tspan id="SvgjsTspan1051" style="text-decoration:;">图书类型</tspan></tspan></text></g></g><g id="SvgjsG1052" transform="translate(25,25.00000762939453)"><path id="SvgjsPath1053" d="M 0 35C 0 -11.666666666666666 100 -11.666666666666666 100 35C 100 81.66666666666667 0 81.66666666666667 0 35Z" stroke="rgba(50,50,50,1)" stroke-width="2" fill-opacity="1" fill="#ffffff"></path><g id="SvgjsG1054"><text id="SvgjsText1055" font-family="微软雅黑" text-anchor="middle" font-size="13px" width="80px" fill="#323232" font-weight="400" align="middle" lineHeight="125%" anchor="middle" family="微软雅黑" size="13px" weight="400" font-style="" opacity="1" y="24.375" transform="rotate(0)"><tspan id="SvgjsTspan1056" dy="16" x="50"><tspan id="SvgjsTspan1057" style="text-decoration:;">类型编号</tspan></tspan></text></g></g><g id="SvgjsG1058" transform="translate(379,25.00000762939453)"><path id="SvgjsPath1059" d="M 0 35C 0 -11.666666666666666 100 -11.666666666666666 100 35C 100 81.66666666666667 0 81.66666666666667 0 35Z" stroke="rgba(50,50,50,1)" stroke-width="2" fill-opacity="1" fill="#ffffff"></path><g id="SvgjsG1060"><text id="SvgjsText1061" font-family="微软雅黑" text-anchor="middle" font-size="13px" width="80px" fill="#323232" font-weight="400" align="middle" lineHeight="125%" anchor="middle" family="微软雅黑" size="13px" weight="400" font-style="" opacity="1" y="24.375" transform="rotate(0)"><tspan id="SvgjsTspan1062" dy="16" x="50"><tspan id="SvgjsTspan1063" style="text-decoration:;">图书类型名</tspan></tspan></text></g></g><g id="SvgjsG1064" transform="translate(202.40000915527344,172.60000610351562)"><path id="SvgjsPath1065" d="M 0 35C 0 -11.666666666666666 100 -11.666666666666666 100 35C 100 81.66666666666667 0 81.66666666666667 0 35Z" stroke="rgba(50,50,50,1)" stroke-width="2" fill-opacity="1" fill="#ffffff"></path><g id="SvgjsG1066"><text id="SvgjsText1067" font-family="微软雅黑" text-anchor="middle" font-size="13px" width="80px" fill="#323232" font-weight="400" align="middle" lineHeight="125%" anchor="middle" family="微软雅黑" size="13px" weight="400" font-style="" opacity="1" y="24.375" transform="rotate(0)"><tspan id="SvgjsTspan1068" dy="16" x="50"><tspan id="SvgjsTspan1069" style="text-decoration:;">图书数量</tspan></tspan></text></g></g><g id="SvgjsG1070"><path id="SvgjsPath1071" d="M252.40000915527344 96.00000762939453L252.40000915527344 133.60000610351562L252.40000915527344 133.60000610351562L252.40000915527344 171.60000610351562" stroke="#323232" stroke-width="2" fill="none"></path></g><g id="SvgjsG1072"><path id="SvgjsPath1073" d="M201.40000915527344 60.00000762939453L163.5 60.00000762939453L163.5 60.00000762939453L126 60.00000762939453" stroke="#323232" stroke-width="2" fill="none"></path></g><g id="SvgjsG1074"><path id="SvgjsPath1075" d="M303.40000915527344 60.00000762939453L340.5 60.00000762939453L340.5 60.00000762939453L378 60.00000762939453" stroke="#323232" stroke-width="2" fill="none"></path></g><g id="SvgjsG1076" transform="translate(87.90000915527344,247.60000610351562)"><path id="SvgjsPath1077" d="M 0 0L 329 0L 329 58L 0 58Z" stroke="none" fill="none"></path><g id="SvgjsG1078"><text id="SvgjsText1079" font-family="微软雅黑" text-anchor="middle" font-size="13px" width="329px" fill="#323232" font-weight="400" align="middle" lineHeight="125%" anchor="middle" family="微软雅黑" size="13px" weight="400" font-style="" opacity="1" y="18.375" transform="rotate(0)"><tspan id="SvgjsTspan1080" dy="16" x="164.5"><tspan id="SvgjsTspan1081" style="text-decoration:;">图书类型实体</tspan></tspan></text></g></g></svg>