<svg id="SvgjsSvg1052" width="478" height="311.6000061035156" xmlns="http://www.w3.org/2000/svg" version="1.1" xmlns:xlink="http://www.w3.org/1999/xlink" xmlns:svgjs="http://svgjs.com/svgjs"><defs id="SvgjsDefs1053"></defs><g id="SvgjsG1054" transform="translate(189,147.00000762939453)"><path id="SvgjsPath1055" d="M 0 0L 100 0L 100 70L 0 70Z" stroke="rgba(50,50,50,1)" stroke-width="2" fill-opacity="1" fill="#ffffff"></path><g id="SvgjsG1056"><text id="SvgjsText1057" font-family="微软雅黑" text-anchor="middle" font-size="13px" width="80px" fill="#323232" font-weight="400" align="middle" lineHeight="125%" anchor="middle" family="微软雅黑" size="13px" weight="400" font-style="" opacity="1" y="24.375" transform="rotate(0)"><tspan id="SvgjsTspan1058" dy="16" x="50"><tspan id="SvgjsTspan1059" style="text-decoration:;">管理员</tspan></tspan></text></g></g><g id="SvgjsG1060" transform="translate(25,147.00000762939453)"><path id="SvgjsPath1061" d="M 0 35C 0 -11.666666666666666 100 -11.666666666666666 100 35C 100 81.66666666666667 0 81.66666666666667 0 35Z" stroke="rgba(50,50,50,1)" stroke-width="2" fill-opacity="1" fill="#ffffff"></path><g id="SvgjsG1062"><text id="SvgjsText1063" font-family="微软雅黑" text-anchor="middle" font-size="13px" width="80px" fill="#323232" font-weight="400" align="middle" lineHeight="125%" anchor="middle" family="微软雅黑" size="13px" weight="400" font-style="" opacity="1" y="24.375" transform="rotate(0)"><tspan id="SvgjsTspan1064" dy="16" x="50"><tspan id="SvgjsTspan1065" style="text-decoration:underline;">用户名</tspan></tspan></text></g></g><g id="SvgjsG1066" transform="translate(353,147.00000762939453)"><path id="SvgjsPath1067" d="M 0 35C 0 -11.666666666666666 100 -11.666666666666666 100 35C 100 81.66666666666667 0 81.66666666666667 0 35Z" stroke="rgba(50,50,50,1)" stroke-width="2" fill-opacity="1" fill="#ffffff"></path><g id="SvgjsG1068"><text id="SvgjsText1069" font-family="微软雅黑" text-anchor="middle" font-size="13px" width="80px" fill="#323232" font-weight="400" align="middle" lineHeight="125%" anchor="middle" family="微软雅黑" size="13px" weight="400" font-style="" opacity="1" y="24.375" transform="rotate(0)"><tspan id="SvgjsTspan1070" dy="16" x="50"><tspan id="SvgjsTspan1071" style="text-decoration:underline;">密码</tspan></tspan></text></g></g><g id="SvgjsG1072" transform="translate(283,25.00000762939453)"><path id="SvgjsPath1073" d="M 0 35C 0 -11.666666666666666 100 -11.666666666666666 100 35C 100 81.66666666666667 0 81.66666666666667 0 35Z" stroke="rgba(50,50,50,1)" stroke-width="2" fill-opacity="1" fill="#ffffff"></path><g id="SvgjsG1074"><text id="SvgjsText1075" font-family="微软雅黑" text-anchor="middle" font-size="13px" width="80px" fill="#323232" font-weight="400" align="middle" lineHeight="125%" anchor="middle" family="微软雅黑" size="13px" weight="400" font-style="" opacity="1" y="24.375" transform="rotate(0)"><tspan id="SvgjsTspan1076" dy="16" x="50"><tspan id="SvgjsTspan1077" style="text-decoration:underline;">职务</tspan></tspan></text></g></g><g id="SvgjsG1078" transform="translate(89,25.00000762939453)"><path id="SvgjsPath1079" d="M 0 35C 0 -11.666666666666666 100 -11.666666666666666 100 35C 100 81.66666666666667 0 81.66666666666667 0 35Z" stroke="rgba(50,50,50,1)" stroke-width="2" fill-opacity="1" fill="#ffffff"></path><g id="SvgjsG1080"><text id="SvgjsText1081" font-family="微软雅黑" text-anchor="middle" font-size="13px" width="80px" fill="#323232" font-weight="400" align="middle" lineHeight="125%" anchor="middle" family="微软雅黑" size="13px" weight="400" font-style="" opacity="1" y="24.375" transform="rotate(0)"><tspan id="SvgjsTspan1082" dy="16" x="50"><tspan id="SvgjsTspan1083" style="text-decoration:underline;">管理员编号</tspan></tspan></text></g></g><g id="SvgjsG1084"><path id="SvgjsPath1085" d="M188 182.00000762939453L157 182.00000762939453L157 182.00000762939453L126 182.00000762939453" stroke="#323232" stroke-width="2" fill="none"></path></g><g id="SvgjsG1086"><path id="SvgjsPath1087" d="M238.11278319876544 146.53865489275256L139.88721680123456 95.4613603660365" stroke="#323232" stroke-width="2" fill="none"></path></g><g id="SvgjsG1088"><path id="SvgjsPath1089" d="M239.87503404241772 146.51594624422728L332.1249659575823 95.48406901456178" stroke="#323232" stroke-width="2" fill="none"></path></g><g id="SvgjsG1090"><path id="SvgjsPath1091" d="M290 182.00000762939453L352 182.00000762939453" stroke="#323232" stroke-width="2" fill="none"></path></g><g id="SvgjsG1092" transform="translate(102,229.60000610351562)"><path id="SvgjsPath1093" d="M 0 0L 274 0L 274 57L 0 57Z" stroke="none" fill="none"></path><g id="SvgjsG1094"><text id="SvgjsText1095" font-family="微软雅黑" text-anchor="middle" font-size="13px" width="274px" fill="#323232" font-weight="700" align="middle" lineHeight="125%" anchor="middle" family="微软雅黑" size="13px" weight="700" font-style="" opacity="1" y="17.875" transform="rotate(0)"><tspan id="SvgjsTspan1096" dy="16" x="137"><tspan id="SvgjsTspan1097" style="text-decoration:;">管理员实体</tspan></tspan></text></g></g></svg>