<svg id="SvgjsSvg1006" width="625" height="484.59999084472656" xmlns="http://www.w3.org/2000/svg" version="1.1" xmlns:xlink="http://www.w3.org/1999/xlink" xmlns:svgjs="http://svgjs.com/svgjs"><defs id="SvgjsDefs1007"></defs><g id="SvgjsG1008" transform="translate(254.99998474121094,166.59999084472656)"><path id="SvgjsPath1009" d="M 0 0L 100 0L 100 70L 0 70Z" stroke="rgba(50,50,50,1)" stroke-width="2" fill-opacity="1" fill="#ffffff"></path><g id="SvgjsG1010"><text id="SvgjsText1011" font-family="微软雅黑" text-anchor="middle" font-size="13px" width="80px" fill="#323232" font-weight="400" align="middle" lineHeight="125%" anchor="middle" family="微软雅黑" size="13px" weight="400" font-style="" opacity="1" y="24.375" transform="rotate(0)"><tspan id="SvgjsTspan1012" dy="16" x="50"><tspan id="SvgjsTspan1013" style="text-decoration:;">读者</tspan></tspan></text></g></g><g id="SvgjsG1014" transform="translate(426.99998474121094,24.99999237060547)"><path id="SvgjsPath1015" d="M 0 35C 0 -11.666666666666666 100 -11.666666666666666 100 35C 100 81.66666666666667 0 81.66666666666667 0 35Z" stroke="rgba(50,50,50,1)" stroke-width="2" fill-opacity="1" fill="#ffffff"></path><g id="SvgjsG1016"><text id="SvgjsText1017" font-family="微软雅黑" text-anchor="middle" font-size="13px" width="80px" fill="#323232" font-weight="400" align="middle" lineHeight="125%" anchor="middle" family="微软雅黑" size="13px" weight="400" font-style="" opacity="1" y="24.375" transform="rotate(0)"><tspan id="SvgjsTspan1018" dy="16" x="50"><tspan id="SvgjsTspan1019" style="text-decoration:underline;">昵称</tspan></tspan></text></g></g><g id="SvgjsG1020" transform="translate(499.99998474121094,215.99999237060547)"><path id="SvgjsPath1021" d="M 0 35C 0 -11.666666666666666 100 -11.666666666666666 100 35C 100 81.66666666666667 0 81.66666666666667 0 35Z" stroke="rgba(50,50,50,1)" stroke-width="2" fill-opacity="1" fill="#ffffff"></path><g id="SvgjsG1022"><text id="SvgjsText1023" font-family="微软雅黑" text-anchor="middle" font-size="13px" width="80px" fill="#323232" font-weight="400" align="middle" lineHeight="125%" anchor="middle" family="微软雅黑" size="13px" weight="400" font-style="" opacity="1" y="24.375" transform="rotate(0)"><tspan id="SvgjsTspan1024" dy="16" x="50"><tspan id="SvgjsTspan1025" style="text-decoration:underline;">邮箱</tspan></tspan></text></g></g><g id="SvgjsG1026" transform="translate(426.99998474121094,329.99999237060547)"><path id="SvgjsPath1027" d="M 0 35C 0 -11.666666666666666 100 -11.666666666666666 100 35C 100 81.66666666666667 0 81.66666666666667 0 35Z" stroke="rgba(50,50,50,1)" stroke-width="2" fill-opacity="1" fill="#ffffff"></path><g id="SvgjsG1028"><text id="SvgjsText1029" font-family="微软雅黑" text-anchor="middle" font-size="13px" width="80px" fill="#323232" font-weight="400" align="middle" lineHeight="125%" anchor="middle" family="微软雅黑" size="13px" weight="400" font-style="" opacity="1" y="24.375" transform="rotate(0)"><tspan id="SvgjsTspan1030" dy="16" x="50"><tspan id="SvgjsTspan1031" style="text-decoration:underline;">余额</tspan></tspan></text></g></g><g id="SvgjsG1032" transform="translate(98.99998474121094,329.99999237060547)"><path id="SvgjsPath1033" d="M 0 35C 0 -11.666666666666666 100 -11.666666666666666 100 35C 100 81.66666666666667 0 81.66666666666667 0 35Z" stroke="rgba(50,50,50,1)" stroke-width="2" fill-opacity="1" fill="#ffffff"></path><g id="SvgjsG1034"><text id="SvgjsText1035" font-family="微软雅黑" text-anchor="middle" font-size="13px" width="80px" fill="#323232" font-weight="400" align="middle" lineHeight="125%" anchor="middle" family="微软雅黑" size="13px" weight="400" font-style="" opacity="1" y="24.375" transform="rotate(0)"><tspan id="SvgjsTspan1036" dy="16" x="50"><tspan id="SvgjsTspan1037" style="text-decoration:underline;">出生日期</tspan></tspan></text></g></g><g id="SvgjsG1038" transform="translate(254.99998474121094,24.99999237060547)"><path id="SvgjsPath1039" d="M 0 35C 0 -11.666666666666666 100 -11.666666666666666 100 35C 100 81.66666666666667 0 81.66666666666667 0 35Z" stroke="rgba(50,50,50,1)" stroke-width="2" fill-opacity="1" fill="#ffffff"></path><g id="SvgjsG1040"><text id="SvgjsText1041" font-family="微软雅黑" text-anchor="middle" font-size="13px" width="80px" fill="#323232" font-weight="400" align="middle" lineHeight="125%" anchor="middle" family="微软雅黑" size="13px" weight="400" font-style="" opacity="1" y="24.375" transform="rotate(0)"><tspan id="SvgjsTspan1042" dy="16" x="50"><tspan id="SvgjsTspan1043" style="text-decoration:underline;">密码</tspan></tspan></text></g></g><g id="SvgjsG1044" transform="translate(24.999984741210938,215.99999237060547)"><path id="SvgjsPath1045" d="M 0 35C 0 -11.666666666666666 100 -11.666666666666666 100 35C 100 81.66666666666667 0 81.66666666666667 0 35Z" stroke="rgba(50,50,50,1)" stroke-width="2" fill-opacity="1" fill="#ffffff"></path><g id="SvgjsG1046"><text id="SvgjsText1047" font-family="微软雅黑" text-anchor="middle" font-size="13px" width="80px" fill="#323232" font-weight="400" align="middle" lineHeight="125%" anchor="middle" family="微软雅黑" size="13px" weight="400" font-style="" opacity="1" y="24.375" transform="rotate(0)"><tspan id="SvgjsTspan1048" dy="16" x="50"><tspan id="SvgjsTspan1049" style="text-decoration:underline;">电话</tspan></tspan></text></g></g><g id="SvgjsG1050" transform="translate(24.999984741210938,115.99999237060547)"><path id="SvgjsPath1051" d="M 0 35C 0 -11.666666666666666 100 -11.666666666666666 100 35C 100 81.66666666666667 0 81.66666666666667 0 35Z" stroke="rgba(50,50,50,1)" stroke-width="2" fill-opacity="1" fill="#ffffff"></path><g id="SvgjsG1052"><text id="SvgjsText1053" font-family="微软雅黑" text-anchor="middle" font-size="13px" width="80px" fill="#323232" font-weight="400" align="middle" lineHeight="125%" anchor="middle" family="微软雅黑" size="13px" weight="400" font-style="" opacity="1" y="24.375" transform="rotate(0)"><tspan id="SvgjsTspan1054" dy="16" x="50"><tspan id="SvgjsTspan1055" style="text-decoration:underline;">地址</tspan></tspan></text></g></g><g id="SvgjsG1056" transform="translate(98.99998474121094,24.99999237060547)"><path id="SvgjsPath1057" d="M 0 35C 0 -11.666666666666666 100 -11.666666666666666 100 35C 100 81.66666666666667 0 81.66666666666667 0 35Z" stroke="rgba(50,50,50,1)" stroke-width="2" fill-opacity="1" fill="#ffffff"></path><g id="SvgjsG1058"><text id="SvgjsText1059" font-family="微软雅黑" text-anchor="middle" font-size="13px" width="80px" fill="#323232" font-weight="400" align="middle" lineHeight="125%" anchor="middle" family="微软雅黑" size="13px" weight="400" font-style="" opacity="1" y="24.375" transform="rotate(0)"><tspan id="SvgjsTspan1060" dy="16" x="50"><tspan id="SvgjsTspan1061" style="text-decoration:underline;">年龄</tspan></tspan></text></g></g><g id="SvgjsG1062" transform="translate(254.99998474121094,329.99999237060547)"><path id="SvgjsPath1063" d="M 0 35C 0 -11.666666666666666 100 -11.666666666666666 100 35C 100 81.66666666666667 0 81.66666666666667 0 35Z" stroke="rgba(50,50,50,1)" stroke-width="2" fill-opacity="1" fill="#ffffff"></path><g id="SvgjsG1064"><text id="SvgjsText1065" font-family="微软雅黑" text-anchor="middle" font-size="13px" width="80px" fill="#323232" font-weight="400" align="middle" lineHeight="125%" anchor="middle" family="微软雅黑" size="13px" weight="400" font-style="" opacity="1" y="24.375" transform="rotate(0)"><tspan id="SvgjsTspan1066" dy="16" x="50"><tspan id="SvgjsTspan1067" style="text-decoration:underline;">头像</tspan></tspan></text></g></g><g id="SvgjsG1068" transform="translate(499.99998474121094,115.99999237060547)"><path id="SvgjsPath1069" d="M 0 35C 0 -11.666666666666666 100 -11.666666666666666 100 35C 100 81.66666666666667 0 81.66666666666667 0 35Z" stroke="rgba(50,50,50,1)" stroke-width="2" fill-opacity="1" fill="#ffffff"></path><g id="SvgjsG1070"><text id="SvgjsText1071" font-family="微软雅黑" text-anchor="middle" font-size="13px" width="80px" fill="#323232" font-weight="400" align="middle" lineHeight="125%" anchor="middle" family="微软雅黑" size="13px" weight="400" font-style="" opacity="1" y="24.375" transform="rotate(0)"><tspan id="SvgjsTspan1072" dy="16" x="50"><tspan id="SvgjsTspan1073" style="text-decoration:underline;">简介</tspan></tspan></text></g></g><g id="SvgjsG1074"><path id="SvgjsPath1075" d="M304.99998474121094 165.59999084472656L304.99998474121094 130.59999084472656L304.99998474121094 130.59999084472656L304.99998474121094 95.99999237060547" stroke="#323232" stroke-width="2" fill="none"></path></g><g id="SvgjsG1076"><path id="SvgjsPath1077" d="M476.07678082500024 95.38430282986118L305.9231886574215 166.21568038547085" stroke="#323232" stroke-width="2" fill="none"></path></g><g id="SvgjsG1078"><path id="SvgjsPath1079" d="M499.0558222376758 151.32947251707583L355.9441472447461 201.2705106982562" stroke="#323232" stroke-width="2" fill="none"></path></g><g id="SvgjsG1080"><path id="SvgjsPath1081" d="M499.053411136156 250.67750452554287L355.946558346266 201.92247868978916" stroke="#323232" stroke-width="2" fill="none"></path></g><g id="SvgjsG1082"><path id="SvgjsPath1083" d="M476.12119252804496 329.52278775403204L305.8787769543768 237.0771954613" stroke="#323232" stroke-width="2" fill="none"></path></g><g id="SvgjsG1084"><path id="SvgjsPath1085" d="M304.99998474121094 328.99999237060547L304.99998474121094 237.59999084472656" stroke="#323232" stroke-width="2" fill="none"></path></g><g id="SvgjsG1086"><path id="SvgjsPath1087" d="M149.85796256336187 329.48630564048966L304.14200691906 237.11367757484237" stroke="#323232" stroke-width="2" fill="none"></path></g><g id="SvgjsG1088"><path id="SvgjsPath1089" d="M125.93476831815599 250.64477460039427L254.0652011642659 201.95520861493776" stroke="#323232" stroke-width="2" fill="none"></path></g><g id="SvgjsG1090"><path id="SvgjsPath1091" d="M125.93188175269268 151.3627153502902L254.0680877297292 201.23726786504182" stroke="#323232" stroke-width="2" fill="none"></path></g><g id="SvgjsG1092"><path id="SvgjsPath1093" d="M149.908828773736 95.41712846895169L304.0911407086859 166.18285474638034" stroke="#323232" stroke-width="2" fill="none"></path></g><g id="SvgjsG1094" transform="translate(124.99998474121094,401.59999084472656)"><path id="SvgjsPath1095" d="M 0 0L 360 0L 360 58L 0 58Z" stroke="none" fill="none"></path><g id="SvgjsG1096"><text id="SvgjsText1097" font-family="微软雅黑" text-anchor="middle" font-size="13px" width="360px" fill="#323232" font-weight="700" align="middle" lineHeight="125%" anchor="middle" family="微软雅黑" size="13px" weight="700" font-style="" opacity="1" y="18.375" transform="rotate(0)"><tspan id="SvgjsTspan1098" dy="16" x="180"><tspan id="SvgjsTspan1099" style="text-decoration:;">读者实体图</tspan></tspan></text></g></g></svg>